<svg version="1.2" xmlns="http://www.w3.org/2000/svg" viewBox="0 0 680 600" width="680" height="600">
	<defs>
		<clipPath clipPathUnits="userSpaceOnUse" id="cp1">
			<path d="m-263-133h2667.83v873.87h-2667.83z"/>
		</clipPath>
	</defs>
	<style>
		.s0 { fill: #83bc32 } 
		.s1 { fill: #00adc9 } 
		.s2 { fill: #cbd50b } 
	</style>
	<g id="g10">
		<g id="g12">
			<g id="Clip-Path: g14" clip-path="url(#cp1)">
				<g id="g14">
					<g id="g146">
						<path id="path148" class="s0" d="m172.73 30.26h201.11v310.02c0 55.53-45.02 100.56-100.55 100.56-55.54 0-100.56-45.03-100.56-100.56z"/>
					</g>
					<g id="g150">
						<path id="path152" class="s1" d="m628.86 499.74c-82.85 0-156.39-39.88-202.47-101.48-24.98 59.61-83.87 101.48-152.54 101.48-91.32 0-165.35-74.03-165.35-165.35v-306.13h-80.47v305.39c0 135.84 110.12 245.96 245.95 245.96h378.77v-81.03c-7.87 0.74-15.83 1.16-23.89 1.16z"/>
					</g>
					<g id="g154">
						<path id="path156" class="s1" d="m502.5 28.26h-76.74v68.47c20.57-27.75 46.71-51.09 76.74-68.47z"/>
					</g>
					<g id="g158">
						<path id="path160" class="s0" d="m652.75 376.21c-7.75 1.42-15.73 2.21-23.89 2.21-72.55 0-131.37-58.82-131.37-131.37 0-72.55 58.82-131.37 131.37-131.37 8.16 0 16.14 0.79 23.89 2.21v-61.09c-7.83-0.98-15.8-1.53-23.89-1.53-105.92 0-191.79 85.86-191.79 191.78 0 105.92 85.87 191.79 191.79 191.79 8.09 0 16.06-0.56 23.89-1.54z"/>
					</g>
					<g id="g162">
						<path id="path164" class="s2" d="m652.75 292.08c-7.13 3.8-15.25 5.96-23.89 5.96-28.16 0-50.99-22.83-50.99-50.99 0-28.16 22.83-50.99 50.99-50.99 8.64 0 16.76 2.17 23.89 5.96v-46.94c-7.63-1.98-15.64-3.03-23.89-3.03-52.47 0-95 42.53-95 95 0 52.47 42.53 95 95 95 8.25 0 16.26-1.05 23.89-3.03z"/>
					</g>
					<g id="g166">
						<path id="path168" class="s1" d="m653.4 247.05c0 13.55-10.99 24.54-24.54 24.54-13.56 0-24.55-10.99-24.55-24.54 0-13.55 10.99-24.54 24.55-24.54 13.55 0 24.54 10.99 24.54 24.54z"/>
					</g>
				</g>
			</g>
		</g>
	</g>
</svg>